<svg width="32" height="32" viewBox="0 0 32 32" fill="none" xmlns="http://www.w3.org/2000/svg">
<circle cx="16" cy="16" r="15" transform="rotate(180 16 16)" fill="#00FF00" fill-opacity="0.5"/>
<circle cx="16" cy="16" r="15.5" transform="rotate(180 16 16)" stroke="black" stroke-opacity="0.1"/>
<g filter="url(#filter0_i_10_131)">
<path d="M17.0607 8.93934C16.4749 8.35355 15.5251 8.35355 14.9393 8.93934L5.3934 18.4853C4.80761 19.0711 4.80761 20.0208 5.3934 20.6066C5.97919 21.1924 6.92893 21.1924 7.51472 20.6066L16 12.1213L24.4853 20.6066C25.0711 21.1924 26.0208 21.1924 26.6066 20.6066C27.1924 20.0208 27.1924 19.0711 26.6066 18.4853L17.0607 8.93934ZM17.5 11L17.5 10L14.5 10L14.5 11L17.5 11Z" fill="white"/>
</g>
<defs>
<filter id="filter0_i_10_131" x="4.95406" y="8.5" width="22.0919" height="16.5459" filterUnits="userSpaceOnUse" color-interpolation-filters="sRGB">
<feFlood flood-opacity="0" result="BackgroundImageFix"/>
<feBlend mode="normal" in="SourceGraphic" in2="BackgroundImageFix" result="shape"/>
<feColorMatrix in="SourceAlpha" type="matrix" values="0 0 0 0 0 0 0 0 0 0 0 0 0 0 0 0 0 0 127 0" result="hardAlpha"/>
<feOffset dy="4"/>
<feGaussianBlur stdDeviation="2"/>
<feComposite in2="hardAlpha" operator="arithmetic" k2="-1" k3="1"/>
<feColorMatrix type="matrix" values="0 0 0 0 0 0 0 0 0 0 0 0 0 0 0 0 0 0 0.25 0"/>
<feBlend mode="normal" in2="shape" result="effect1_innerShadow_10_131"/>
</filter>
</defs>
</svg>
